<!-- icon666.com - MILLIONS vector ICONS FREE --><svg version="1.1" id="Layer_1" xmlns="http://www.w3.org/2000/svg" xmlns:xlink="http://www.w3.org/1999/xlink" x="0px" y="0px" viewBox="0 0 512 512" style="enable-background:new 0 0 512 512;" xml:space="preserve"><path style="fill:#FCC062;" d="M437.352,311.486L256,492.837L74.648,311.486C32.319,269.157,8.317,211.891,7.812,152.031l0,0 c0-75.168,60.935-136.103,136.103-136.103c46.516,0,87.537,23.369,112.085,58.972c24.547-35.602,65.569-58.972,112.085-58.972 c75.168,0,136.103,60.935,136.103,136.103l0,0C503.684,211.891,479.68,269.157,437.352,311.486z"></path><path style="fill:#F58D67;" d="M437.352,311.486L256,492.837L74.648,311.486C32.319,269.157,8.317,211.891,7.812,152.031l0,0 c0-75.168,60.935-136.103,136.103-136.103c46.516,0,87.537,23.369,112.085,58.972c24.547-35.602,65.569-58.972,112.085-58.972 c75.168,0,136.103,60.935,136.103,136.103l0,0C503.684,211.891,479.68,269.157,437.352,311.486z"></path><path style="fill:#F27141;" d="M186.733,311.486c-42.329-42.33-66.333-99.595-66.837-159.455 c0-55.202,32.924-102.624,80.154-123.975c-17.113-7.774-36.11-12.127-56.136-12.127C68.747,15.927,7.812,76.863,7.812,152.031 c0.504,59.86,24.508,117.126,66.837,159.455L256,492.837l56.042-56.042L186.733,311.486z"></path><path d="M256,503.884L69.125,317.009c-21.786-21.786-38.872-47.241-50.783-75.658C6.431,212.937,0.26,182.907,0,152.096 C0,72.676,64.56,8.116,143.915,8.116c43.699,0,84.847,19.901,112.085,53.726c27.238-33.825,68.387-53.726,112.085-53.726 C447.439,8.116,512,72.676,512,152.031c-0.26,30.876-6.431,60.906-18.342,89.322c-11.911,28.416-28.997,53.87-50.783,75.658 L256,503.884z M143.915,23.739c-70.74,0-128.292,57.551-128.292,128.292c0.491,58.106,23.414,112.796,64.55,153.932l175.827,175.828 l175.827-175.828c41.135-41.135,64.06-95.825,64.55-153.998c0-70.674-57.551-128.225-128.292-128.225 c-42.155,0-81.652,20.783-105.653,55.594l-6.432,9.327l-6.432-9.327C225.566,44.522,186.07,23.739,143.915,23.739z"></path><g><path style="fill:#FFFFFF;" d="M55.655,152.535H40.031c0-57.286,46.196-104.389,103.482-104.389v15.623 C95.6,63.769,55.655,103.582,55.655,152.535z"></path><rect x="40.398" y="168.159" style="fill:#FFFFFF;" width="15.623" height="15.623"></rect><rect x="302.201" y="313.099" transform="matrix(-0.7071 -0.7071 0.7071 -0.7071 261.7968 864.8412)" style="fill:#FFFFFF;" width="15.623" height="130.204"></rect><rect x="368.262" y="300.837" transform="matrix(-0.7071 -0.7071 0.7071 -0.7071 421.267 798.8138)" style="fill:#FFFFFF;" width="15.623" height="22.644"></rect></g></svg>