<!-- icon666.com - MILLIONS vector ICONS FREE --><svg id="Layer_1" enable-background="new 0 0 512 512" viewBox="0 0 512 512" xmlns="http://www.w3.org/2000/svg"><path d="m499.881 145.022c-4.42-6.513-11.755-10.401-19.622-10.401h-84.917c-.427-2.268-1.805-4.275-3.846-5.454l-95.385-55.07c-2.475-1.429-5.525-1.429-8 0l-95.385 55.07c-2.042 1.178-3.42 3.185-3.846 5.454h-64.937l-15.638-64.775c-4.55-18.851-21.247-32.017-40.605-32.017h-35.958c-13.091 0-23.742 10.65-23.742 23.742 0 13.091 10.65 23.741 23.741 23.741h31.559l57.334 237.498c-23.16 10.972-38.272 34.407-38.272 60.397 0 33.208 24.136 60.853 56.182 65.963 2.4 30.633 28.077 54.831 59.317 54.831 30.947 0 56.442-23.745 59.25-53.971h72.11c2.808 30.225 28.304 53.97 59.251 53.97 32.818 0 59.519-26.7 59.519-59.518s-26.7-59.518-59.519-59.518c-16.474 0-31.403 6.73-42.19 17.582h-106.232c-10.787-10.852-25.716-17.582-42.189-17.582-16.474 0-31.403 6.73-42.19 17.582h-6.487c-10.663 0-19.339-8.676-19.339-19.339s8.676-19.339 19.339-19.339h242.752c29.748 0 55.635-19.128 64.416-47.599l46.101-149.464c2.75-7.225 1.798-15.343-2.572-21.783zm-277.293 15.242v38.753c0 2.858 1.524 5.499 4 6.928l27.662 15.97c1.237.714 2.619 1.072 4 1.072s2.763-.357 4-1.072c2.476-1.429 4-4.07 4-6.928v-29.515l17.861 10.312v91.666l-79.385-45.832v-91.666zm77.524 127.186v-91.666l79.385-45.833v91.666zm-8-105.522-17.862-10.312 79.385-45.833 17.862 10.312zm-53.524-12.427 11.662 6.733v24.896l-11.662-6.733zm19.662-7.123-11.662-6.733 79.385-45.833 11.662 6.733zm-69.523 53.336h-45.207l-8.113-33.61h53.32zm0 16v14.522c0 2.858 1.524 5.499 4 6.928l17.491 10.099v2.545h-54.605l-8.23-34.094zm21.491 50.094v34.577h-42.396l-8.347-34.577zm16 0h16.12l40.095 23.149v11.429h-56.215zm72.215 25.087 43.452-25.087h12.763v34.577h-56.215zm72.215-25.087h46.738l-6.33 20.521c-2.675 8.67-10.001 14.056-19.12 14.056h-21.288zm51.672-16h-51.672v-.606l20.849-12.037c2.476-1.429 4-4.07 4-6.928v-14.522h37.34zm15.451-50.094h-42.275v-33.61h52.642zm-145.659-125.452 17.861 10.312-79.385 45.833-17.861-10.312zm96.36 310.702c23.996 0 43.519 19.522 43.519 43.518s-19.523 43.518-43.519 43.518-43.519-19.522-43.519-43.518 19.523-43.518 43.519-43.518zm-53.561 17.582c-2.35 4.833-4.05 10.033-5.02 15.483h-73.451c-.97-5.45-2.67-10.65-5.02-15.483zm-137.05-17.582c23.996 0 43.518 19.522 43.518 43.518s-19.522 43.518-43.518 43.518-43.519-19.522-43.519-43.518 19.523-43.518 43.519-43.518zm289.597-239.745c-.078.196-.148.396-.211.598l-46.185 149.737c-6.699 21.721-26.442 36.314-49.127 36.314h-242.751c-19.486 0-35.339 15.853-35.339 35.339 0 17.886 13.358 32.701 30.621 35.015-2.296 4.65-4 9.639-5.019 14.873-23.551-4.547-41.085-25.2-41.085-49.888 0-21.631 13.775-40.939 34.279-48.044 3.892-1.349 6.123-5.433 5.156-9.437l-59.99-248.504c-1.144-4.731-5.205-7.91-10.106-7.91h-35.959c-4.269 0-7.741-3.473-7.741-7.741 0-4.269 3.473-7.742 7.741-7.742h35.959c11.941 0 22.243 8.13 25.053 19.771l17.115 70.898c.867 3.592 4.081 6.123 7.776 6.123h71.082v15.483h-63.481c-2.452 0-4.769 1.125-6.285 3.051-1.518 1.927-2.066 4.442-1.491 6.826l36.278 150.281c.867 3.592 4.081 6.123 7.776 6.123h230.412c16.154 0 29.66-9.946 34.409-25.339l40.277-130.584c.749-2.427.301-5.065-1.208-7.108-1.508-2.043-3.896-3.25-6.437-3.25h-63.481v-15.483h84.763c2.596 0 4.922 1.234 6.382 3.385 1.477 2.176 1.775 4.805.817 7.213zm-289.597 312.239c15.978 0 28.976-12.999 28.976-28.976 0-15.978-12.998-28.976-28.976-28.976s-28.976 12.999-28.976 28.976 12.998 28.976 28.976 28.976zm0-41.952c7.155 0 12.976 5.821 12.976 12.976s-5.82 12.976-12.976 12.976-12.976-5.821-12.976-12.976 5.821-12.976 12.976-12.976zm190.611 41.952c15.978 0 28.976-12.999 28.976-28.976 0-15.978-12.998-28.976-28.976-28.976s-28.976 12.999-28.976 28.976c.001 15.977 12.999 28.976 28.976 28.976zm0-41.952c7.155 0 12.976 5.821 12.976 12.976s-5.82 12.976-12.976 12.976-12.976-5.821-12.976-12.976c.001-7.155 5.821-12.976 12.976-12.976zm-104.36-382.192v-33.314c0-4.418 3.582-8 8-8s8 3.582 8 8v33.314c0 4.418-3.582 8-8 8s-8-3.581-8-8zm-67.945-.51c-3.124-3.124-3.124-8.189 0-11.313 3.126-3.125 8.19-3.123 11.314 0l23.558 23.557c3.124 3.124 3.124 8.189 0 11.313-1.562 1.562-3.609 2.343-5.657 2.343s-4.095-.781-5.657-2.343zm117.017 23.557c-3.124-3.124-3.124-8.189 0-11.313l23.557-23.557c3.127-3.125 8.191-3.123 11.314 0 3.124 3.124 3.124 8.189 0 11.313l-23.557 23.557c-1.562 1.562-3.609 2.343-5.657 2.343-2.047.001-4.094-.781-5.657-2.343z"></path></svg>