<svg width="24" height="22" viewBox="0 0 24 22" fill="none" xmlns="http://www.w3.org/2000/svg">
<path d="M22.4986 4.88157C22.6497 4.37375 22.4986 4 21.7717 4H19.3661C18.7535 4 18.4717 4.32094 18.3205 4.67844C18.3205 4.67844 17.0953 7.64814 15.3637 9.57377C14.8042 10.1303 14.5469 10.309 14.2406 10.309C14.0895 10.309 13.8567 10.1303 13.8567 9.62252V4.88157C13.8567 4.27219 13.6852 4 13.1787 4H9.39687C9.01296 4 8.78426 4.28438 8.78426 4.54844C8.78426 5.12532 9.65008 5.25938 9.73993 6.88438V10.4106C9.73993 11.1826 9.60107 11.3247 9.29476 11.3247C8.47795 11.3247 6.49309 8.34283 5.31687 4.93032C5.07999 4.26813 4.8472 4 4.2305 4H1.82499C1.13886 4 1 4.32094 1 4.67844C1 5.31219 1.81681 8.46064 4.80228 12.6207C6.79122 15.4604 9.59291 17 12.1414 17C13.6729 17 13.8607 16.6587 13.8607 16.0698C13.8607 13.3559 13.7219 13.1 14.4897 13.1C14.845 13.1 15.4576 13.2788 16.887 14.6478C18.5207 16.2728 18.7903 17 19.7051 17H22.1106C22.7967 17 23.1439 16.6587 22.9438 15.9844C22.4863 14.5666 19.3947 11.6497 19.2558 11.4547C18.9005 10.9997 19.0027 10.7965 19.2558 10.3904C19.26 10.3863 22.1964 6.275 22.4986 4.88157Z" fill="#285471"/>
</svg>
