<svg width="24" height="22" viewBox="0 0 24 22" fill="none" xmlns="http://www.w3.org/2000/svg">
<path d="M22.5194 5.34699C22.2549 4.42317 21.4755 3.69559 20.486 3.44868C18.6923 3 11.5 3 11.5 3C11.5 3 4.30774 3 2.51405 3.44868C1.52449 3.69562 0.74513 4.42317 0.480609 5.34699C0 7.02148 0 10.5151 0 10.5151C0 10.5151 0 14.0088 0.480609 15.6833C0.74513 16.6072 1.52449 17.3044 2.51405 17.5513C4.30774 18 11.5 18 11.5 18C11.5 18 18.6922 18 20.486 17.5513C21.4755 17.3044 22.2549 16.6072 22.5194 15.6833C23 14.0088 23 10.5151 23 10.5151C23 10.5151 23 7.02148 22.5194 5.34699ZM9.14771 13.6871V7.34315L15.1591 10.5152L9.14771 13.6871Z" fill="#285471"/>
</svg>
